# xmcd
#
# Track frame offsets:
#	150
#	22245
#	41898
#	62211
#	82097
#	102422
#	123704
#	147582
#	170933
#	193257
#	209151
#	220097
#	228888
#
# Disc length: 3177 seconds
#
# Revision: 0
# Processed by: cddbd v1.5.2PL0 Copyright (c) Steve Scherf et al.
# Submitted via: audiograbber 1.83.01
#
DISCID=dc0c670d
DTITLE=Various Artist - XMiX Urban Series 176
DYEAR=2013
DGENRE=Hip Hop
TTITLE0=Britney Spears - Ooh La La
TTITLE1=Bruno Mars - Treasure
TTITLE2=Wale Feat. Sam Dew - Lovehate Thing
TTITLE3=Major Lazer Feat. 2 Chainz, Bruno Mars, Mystic and Tyga - Bubble Butt
TTITLE4=Bridget Kelly Feat. Kendrick Lamar - Street Dreamin
TTITLE5=Sammy Adams Feat. Mike Posner - L.A. Story
TTITLE6=J. Cole Feat. TLC - Crooked Smile
TTITLE7=DJ Felli Fel Feat. Ne-Yo, Tyga and Wiz Khalifa - Reason To Hate
TTITLE8=Lil' Kim Feat. Mr. Cheeks - The Jump Off
TTITLE9=Chris Brown - Fine China (XMiX Dancehall Mix)
TTITLE10=Major Lazer Feat. 2 Chainz, Bruno Mars, Mystic and Tyga - Bubble Butt (X
TTITLE10=MiX Party Break)
TTITLE11=Wale Feat. Sam Dew - Lovehate Thing (XMiX Party Break)
TTITLE12=Sammy Adams Feat. Mike Posner - L.A. Story (XMiX Party Break)
EXTD=
EXTT0=
EXTT1=
EXTT2=
EXTT3=
EXTT4=
EXTT5=
EXTT6=
EXTT7=
EXTT8=
EXTT9=
EXTT10=
EXTT11=
EXTT12=
PLAYORDER=
